<svg version="1.1" xmlns="http://www.w3.org/2000/svg" xmlns:xlink="http://www.w3.org/1999/xlink" width="277.35355" height="93.59836" viewBox="0,0,277.35355,93.59836"><g transform="translate(-101.45033,-136.42244)"><g data-paper-data="{&quot;isPaintingLayer&quot;:true}" stroke-miterlimit="10" stroke-dasharray="" stroke-dashoffset="0" style="mix-blend-mode: normal"><text transform="translate(217.71423,179.67584) scale(0.56501,0.56501)" font-size="40" xml:space="preserve" fill="#ffffff" fill-rule="nonzero" stroke="none" stroke-width="1" stroke-linecap="butt" stroke-linejoin="miter" stroke-miterlimit="10" stroke-dasharray="" stroke-dashoffset="0" font-family="Sans Serif" font-weight="normal" text-anchor="start" style="mix-blend-mode: normal"><tspan x="0" dy="0">Scratch  Maker</tspan><tspan x="0" dy="46.150000000000006px"> Scratch创作家</tspan></text><g fill-rule="evenodd"><path d="M133.82931,200.77924c0.8,0.4 2.5,1.3 0.1,4.7c-2.4,3.4 -9.3,4.1 -10.1,4.1c-3.1,0.1 -6.9,0.1 -11.1,-1.3c-12.2,-4 -12.3,-17.1 -8.4,-19.2c3.8,-2.1 5.5,6 11,10.9c2.4,2.2 5.3,3 7.7,3.5c3.4,0.6 9.9,-3.2 10.8,-2.7z" fill="#ffab19" stroke="#001026" stroke-width="1.2" stroke-linecap="round" stroke-linejoin="round"/><path d="M109.0293,192.67924c1.6,2.7 4.7,6.5 4.7,6.5c0,0 -3.7,-0.9 -5.8,0.8c-1.7,1.3 -1.3,3.5 -1.1,4.2c-1.3,-1.3 -2.9,-3.1 -3.9,-6.6c-1,-3.5 0,-7.7 2,-8.3c2,-0.4 2.5,1.1 4.1,3.4z" fill="#ffffff" stroke="none" stroke-width="1" stroke-linecap="butt" stroke-linejoin="miter"/></g><path d="M138.82931,211.17924c-1.8,1.2 -8,5.6 -15.9,8.1l-0.4,0.1c-0.4,0.1 -0.6,0.6 -0.4,1c1.7,2.4 4.8,7.2 -0.7,8.9c-5.3,1.7 -15.2,-12.4 -11,-16.1c1.9,-1.4 3.6,-0.7 4.5,-0.3c0.5,0.2 1,0.2 1.5,0.1c1.2,-0.4 3.4,-1.2 5.1,-2.1c4.3,-2.2 5.3,-3.1 7.3,-4.6c2,-1.5 6.6,-5.2 10.3,-2c3.2,2.7 1.4,5.7 -0.3,6.9z" fill="#ffab19" fill-rule="evenodd" stroke="#001026" stroke-width="1.2" stroke-linecap="round" stroke-linejoin="round"/><path d="M153.301,194.02519c0.70138,0.13286 10.30161,3.85547 11.5782,1.30674c1.55891,-3.00413 3.15715,-8.23324 8.39602,-6.89617c5.23886,1.33706 0.66456,9.53168 -1.68566,12.22176c-5.80282,5.97569 -14.29693,3.20127 -16.26806,2.30262c-1.97114,-0.89865 -5.37565,-2.3807 -6.54485,-4.73612c-1.15484,-2.5825 2.07666,-4.77735 4.52434,-4.19881z" fill="#ffab19" fill-rule="evenodd" stroke="#001026" stroke-width="1.2" stroke-linecap="round" stroke-linejoin="round"/><g fill-rule="evenodd"><path d="M154.82931,213.67924c2.1,1.9 6.7,5.8 6.7,5.8c0,0 14.3,-2.5 14.3,4.7c0,4.3 -7.2,5.3 -16.9,4.4c-0.6,-0.1 -1.2,-0.3 -1.7,-0.7c-2.2,-1.9 -8.5,-7.5 -12.5,-11.4c-5.9,-5.8 -10.8,-9.6 -10.8,-9.6c-8.5,-8.3 -1.6,-11.8 1.1,-16.6c2.5,-4.1 3.6,-3.3 9.6,-2.1c3.4,0.5 5.4,0.8 7.6,0.7c3.3,-0.1 2.7,4.7 1.8,7.2c0,0 -1.4,3.7 -2.7,5.6c-1.6,2.3 -2.8,3.8 -4,4.7z" fill="#ffab19" stroke="#001026" stroke-width="1.2" stroke-linecap="round" stroke-linejoin="round"/><path d="M146.42931,206.27924c0,0 -1.5,-1.2 -3.1,-2.7c-2,-1.8 -4,-3.3 -2,-6.4c1.8,-2.4 3.5,-5.6 8,-2.7c4.3,2.7 2.4,5.2 2.4,5.2c-2.2,4.5 -5.3,6.6 -5.3,6.6z" fill="#ffffff" stroke="none" stroke-width="1" stroke-linecap="butt" stroke-linejoin="miter"/></g><path d="M130.29254,202.19478c2.79856,2.20183 6.92842,4.80073 3.43412,8.63347c-4.95473,4.59898 -12.07597,-3.96245 -13.87359,-7.12766c-1.60606,-2.8001 0.44861,-5.35712 2.18535,-7.52823c3.4471,-4.02709 6.28476,-7.59748 10.52575,-7.08367c5.28354,0.56938 2.72904,5.30588 0.72436,7.64495c-1.19809,1.42288 -2.37259,2.94294 -3.27635,3.88273c-0.17355,0.55667 -0.12915,1.16332 0.28036,1.57841z" fill="#ffab19" fill-rule="evenodd" stroke="#001026" stroke-width="1.2" stroke-linecap="round" stroke-linejoin="round"/><g fill-rule="evenodd"><path d="M151.18443,137.10781c0.27859,-0.17009 0.72436,-0.05672 0.79724,0.31395l1.88205,9.91231c0,0 5.55938,4.5831 7.12825,7.68802c2.64479,5.17631 2.5421,9.30176 2.5421,9.30176c0,0 6.30079,2.23252 7.13682,7.50485c0.83603,5.27233 -3.58692,14.97123 -20.66728,17.54055c-17.08036,2.56932 -30.4535,-2.75916 -36.35603,-13.5086c-5.90253,-10.74944 4.76102,-22.71629 4.1867,-22.00979l-1.12367,-16.48427c-0.07288,-0.37068 0.39002,-0.62363 0.7415,-0.42304l10.55292,7.762c0,0 4.12326,-1.36079 8.36231,-1.33917c2.52885,-0.06116 4.68053,0.22657 6.73363,0.6931z" fill="#ffab19" stroke="#001026" stroke-width="1.2" stroke-linecap="butt" stroke-linejoin="miter"/><path d="M163.24691,164.67709c0,0 6.13362,1.94907 6.96964,7.2214c0.83603,5.27233 -3.92554,14.4959 -20.8216,16.98235c-21.99658,3.52457 -31.73109,-10.16396 -25.24648,-19.57949c6.4889,-9.5071 16.45037,-0.67229 24.03692,-0.85577c6.50215,-0.14419 7.49202,-5.87886 15.06152,-3.76849z" fill="#ffffff" stroke="none" stroke-width="1" stroke-linecap="butt" stroke-linejoin="miter"/><path d="M134.43549,173.10364c0.01713,-0.36632 0.39001,-0.62363 0.74577,-0.51462c1.68022,0.72384 6.47225,2.4244 11.85573,3.05214c4.8477,0.51002 7.74087,0.37471 9.10387,0.16532c0.45433,-0.06979 0.79296,0.40553 0.59153,0.85471c-0.92571,2.43344 -4.66728,9.13635 -14.09266,8.12938c-8.1481,-1.31229 -8.68412,-7.2126 -8.20425,-11.68694z" fill="#ffffff" stroke="#001026" stroke-width="1.2" stroke-linecap="round" stroke-linejoin="round"/><path d="M179.76168,166.48615c-4.39321,3.27525 -10.87823,3.05312 -10.87823,3.05312" fill="none" stroke="#001026" stroke-width="1.2" stroke-linecap="round" stroke-linejoin="round"/><path d="M178.11192,176.68645c-5.69206,0.1834 -9.12108,-1.72654 -9.12108,-1.72654" fill="none" stroke="#001026" stroke-width="1.2" stroke-linecap="round" stroke-linejoin="round"/><path d="M147.93669,166.04708c1.89022,0.0915 3.86187,0.37051 3.92191,1.01593c0.03006,1.28647 -1.44001,3.78535 -2.88445,3.80722c-1.62875,0.10473 -5.30211,-2.36776 -5.23359,-3.83303c-0.03862,-1.10332 2.39593,-1.07725 4.19613,-0.99011z" fill="#001026" stroke="#001026" stroke-width="1.2" stroke-linecap="round" stroke-linejoin="round"/><path d="M107.49635,162.7127c0,0 7.62098,2.93894 10.63858,5.93041" fill="none" stroke="#001026" stroke-width="1.2" stroke-linecap="round" stroke-linejoin="round"/><path d="M118.25507,171.86147c-3.94324,1.3695 -10.55688,0.0397 -10.55688,0.0397" fill="none" stroke="#001026" stroke-width="1.2" stroke-linecap="round" stroke-linejoin="round"/><g><path d="M159.05894,155.84638c2.41759,4.24744 2.2892,8.92236 -0.30818,10.4488c-2.59737,1.52643 -6.64791,-0.59716 -9.15551,-4.84896c-2.41759,-4.24744 -2.2892,-8.92237 0.30818,-10.4488c2.60165,-1.61802 6.73792,0.60152 9.15551,4.84896z" fill="#ffffff" stroke="#001026" stroke-width="1.2" stroke-linecap="round" stroke-linejoin="round"/><path d="M158.4548,161.049c-0.0471,1.00737 -0.80573,1.79673 -1.70583,1.75316c-0.9001,-0.04357 -1.58164,-0.90265 -1.53454,-1.91002c0.0471,-1.00737 0.80573,-1.79674 1.70583,-1.75317c0.9001,0.04357 1.58164,0.90265 1.53454,1.91002" fill="#001026" stroke="none" stroke-width="1" stroke-linecap="butt" stroke-linejoin="miter"/></g><g><path d="M136.6165,157.33007c2.51188,4.16022 2.10061,9.0968 -0.41103,10.71918c-3.0517,1.59623 -6.95219,0.12241 -9.46407,-4.03781c-2.60189,-4.16458 -2.53781,-9.39333 0.34672,-11.27302c2.88881,-1.97126 7.01651,0.43143 9.52839,4.59165z" fill="#ffffff" stroke="#001026" stroke-width="1.2" stroke-linecap="round" stroke-linejoin="round"/><path d="M135.82806,162.61554c-0.0471,1.00737 -0.80573,1.79674 -1.70583,1.75317c-0.9001,-0.04357 -1.58164,-0.90265 -1.53454,-1.91002c0.0471,-1.00737 0.80573,-1.79674 1.70583,-1.75317c0.89582,0.13515 1.58164,0.90265 1.53454,1.91002" fill="#001026" stroke="none" stroke-width="1" stroke-linecap="butt" stroke-linejoin="miter"/></g></g><g fill-rule="nonzero" stroke="#ffffff" stroke-linejoin="miter"><path d="M172.35666,187.89292l0.21762,-28.11165l13.49276,5.76649l-13.05753,4.86547" fill="#ff0000" stroke-width="1" stroke-linecap="round"/><path d="M174.26381,158.51963c0,1.00313 -0.75899,1.81634 -1.69525,1.81634c-0.93626,0 -1.69525,-0.8132 -1.69525,-1.81634c0,-1.00313 0.75899,-1.81634 1.69525,-1.81634c0.93626,0 1.69525,0.8132 1.69525,1.81634z" fill="#ffffff" stroke-width="0.5" stroke-linecap="butt"/></g></g></g></svg>