<svg version="1.1" xmlns="http://www.w3.org/2000/svg" xmlns:xlink="http://www.w3.org/1999/xlink" width="509.1504" height="373.04693" viewBox="0,0,509.1504,373.04693"><g transform="translate(16.03896,1.00203)"><g data-paper-data="{&quot;isPaintingLayer&quot;:true}" fill-rule="nonzero" stroke-linecap="butt" stroke-linejoin="miter" stroke-miterlimit="10" stroke-dasharray="" stroke-dashoffset="0" style="mix-blend-mode: normal"><path d="M-11.96202,0h492.95391v290l-491.97624,-15z" fill="#121212" stroke="#ccffff" stroke-width="2.00406"/><path d="M444.99118,247.42646c12.05256,-0.53467 25.61835,4.24571 33.00294,13.54706c7.86306,9.85909 5.70849,24.56341 5.04411,37.03823c0.32427,12.83656 1.65303,27.53943 -6.05294,37.97499c-7.11941,9.66597 -20.08712,16.72053 -31.99412,16.64559c-17.7135,-0.11097 -37.89573,-5.89441 -50.93982,-15.41627c-13.04409,-9.5233 -21.119,-22.67403 -21.119,-37.18667c0,-14.51265 8.07491,-27.66338 21.119,-37.18668c13.04409,-9.52185 33.23929,-14.64523 50.93982,-15.41626z" fill="#169741" stroke="#169741" stroke-width="2.88236"/><path d="M80.01764,237.57646c15.41794,0 29.38853,3.84941 39.50435,10.06776c10.11582,6.21929 16.37799,14.80753 16.37799,24.28518c0,9.47764 -6.26217,18.06588 -16.37799,24.28517c-10.11582,6.21835 -24.08641,10.06777 -39.50435,10.06777c-15.41794,0 -29.38853,-3.84942 -39.50435,-10.06777c-10.11582,-6.21929 -16.37799,-14.80753 -16.37799,-24.28517c0,-9.47764 6.26217,-18.06588 16.37799,-24.28518c10.11582,-6.21836 24.08641,-10.06776 39.50435,-10.06776z" fill="#169741" stroke="#169741" stroke-width="2.06637"/><path d="M193.49118,229.87646c19.88103,0 37.89573,5.89441 50.93982,15.41627c13.04409,9.52329 21.119,22.67403 21.119,37.18668c0,14.51265 -8.07491,27.66338 -21.119,37.18667c-13.04409,9.52185 -31.05879,15.41627 -50.93982,15.41627c-19.88103,0 -37.89573,-5.89442 -50.93982,-15.41627c-13.04409,-9.5233 -21.119,-22.67403 -21.119,-37.18667c0,-14.51265 8.07491,-27.66338 21.119,-37.18668c13.04409,-9.52185 31.05879,-15.41627 50.93982,-15.41627z" fill="#169741" stroke="#169741" stroke-width="2.88236"/><path d="M321.49118,237.87646c19.88103,0 37.89573,5.89441 50.93982,15.41627c13.04409,9.52329 21.119,22.67403 21.119,37.18668c0,14.51265 -8.07491,27.66338 -21.119,37.18667c-13.04409,9.52185 -31.05879,15.41627 -50.93982,15.41627c-19.88103,0 -37.89573,-5.89442 -50.93982,-15.41627c-13.04409,-9.5233 -21.119,-22.67403 -21.119,-37.18667c0,-14.51265 8.07491,-27.66338 21.119,-37.18668c13.04409,-9.52185 31.05879,-15.41627 50.93982,-15.41627z" fill="#169741" stroke="#169741" stroke-width="2.88236"/><path d="M-2.00188,244.99705c5.94523,-3.21318 16.1986,10.32094 22.58866,19.19717c4.81531,6.67388 10.26528,14.98541 10.26528,24.28518c0,9.29976 -4.03214,20.24658 -10.26528,24.28517l-20.5922,-3.76753l-0.98071,-34.96471c-0.32154,-11.6433 -5.85696,-27.32893 -1.01574,-29.03529z" fill="#169741" stroke="#169741" stroke-width="1.65924"/><path d="M-12.90241,280.386l496.46396,-4.386l8.45045,87.72003l-507.02703,7.31z" fill="#169741" stroke="#169741" stroke-width="2"/></g></g></svg>