<svg version="1.1" xmlns="http://www.w3.org/2000/svg" xmlns:xlink="http://www.w3.org/1999/xlink" width="103.33333" height="55" viewBox="0,0,103.33333,55"><g transform="translate(-188.33333,-152.5)"><g data-paper-data="{&quot;isPaintingLayer&quot;:true}" fill-rule="nonzero" stroke-linejoin="miter" stroke-miterlimit="10" stroke-dasharray="" stroke-dashoffset="0" style="mix-blend-mode: normal"><path d="M189.33333,206.5v-53h101.33333v53z" fill="#ffffff" stroke="#000000" stroke-width="2" stroke-linecap="butt"/><text transform="translate(190.54583,162.33562) scale(0.21667,0.21667)" font-size="40" xml:space="preserve" fill="#9966ff" fill-rule="nonzero" stroke="none" stroke-width="1" stroke-linecap="butt" stroke-linejoin="miter" stroke-miterlimit="10" stroke-dasharray="" stroke-dashoffset="0" font-family="Sans Serif" font-weight="normal" text-anchor="start" style="mix-blend-mode: normal"><tspan x="0" dy="0">尖刺 [2]</tspan></text><path d="M238.77304,183.83192l-6.48096,4.92884l3.88283,-7.18433z" data-paper-data="{&quot;index&quot;:null}" fill="#ffffff" stroke="#000000" stroke-width="1.5" stroke-linecap="round"/><path d="M243.8029,181.5109l3.88284,7.18433l-6.48096,-4.92884z" data-paper-data="{&quot;index&quot;:null}" fill="#ffffff" stroke="#000000" stroke-width="1.5" stroke-linecap="round"/><path d="M236.30002,178.73995l-3.88283,-7.18433l6.48096,4.92884z" data-paper-data="{&quot;index&quot;:null}" fill="#ffffff" stroke="#000000" stroke-width="1.5" stroke-linecap="round"/><path d="M241.18839,176.29828l6.48096,-4.92884l-3.88284,7.18433z" fill="#ffffff" stroke="#000000" stroke-width="1.5" stroke-linecap="round"/><path d="M238.28319,176.6968l1.66294,-7.97063l1.77762,7.97063z" fill="#ffffff" stroke="#000000" stroke-width="1.5" stroke-linecap="round"/><path d="M241.72375,183.3032l-1.77762,7.97063l-1.66294,-7.97063z" data-paper-data="{&quot;index&quot;:null}" fill="#ffffff" stroke="#000000" stroke-width="1.5" stroke-linecap="round"/><path d="M236.65292,181.72246l-7.97861,-1.62426l7.96192,-1.81626z" fill="#ffffff" stroke="#000000" stroke-width="1.5" stroke-linecap="round"/><path d="M243.36377,178.28194l7.96192,1.81626l-7.97861,1.62426z" data-paper-data="{&quot;index&quot;:null}" fill="#ffffff" stroke="#000000" stroke-width="1.5" stroke-linecap="round"/><path d="M234.26593,185.65096v-11.30193h11.46814v11.30193z" fill="#ffffff" stroke="#000000" stroke-width="1.5" stroke-linecap="butt"/></g></g></svg>