<svg version="1.1" xmlns="http://www.w3.org/2000/svg" xmlns:xlink="http://www.w3.org/1999/xlink" width="93.84611" height="104.59648" viewBox="0,0,93.84611,104.59648"><g transform="translate(-186.47629,-127.91261)"><g data-paper-data="{&quot;isPaintingLayer&quot;:true}" fill="none" fill-rule="evenodd" stroke="none" stroke-width="none" stroke-linecap="none" stroke-linejoin="none" stroke-miterlimit="10" stroke-dasharray="" stroke-dashoffset="0" font-family="none" font-weight="none" font-size="none" text-anchor="none" style="mix-blend-mode: normal"><path d="M217.07561,194.50037c0.98995,0.14142 3.74767,-0.91924 2.82843,3.11127c-1.06066,4.03051 -5.44472,12.51579 -17.32412,13.22289c-12.86935,0.70711 -17.53625,-11.17228 -14.70783,-14.5664c2.75771,-3.3234 6.50538,2.82843 14.21285,6.15183c11.10157,4.87903 14.00071,-8.06101 14.99066,-7.91959z" data-paper-data="{&quot;origRot&quot;:0,&quot;origPos&quot;:null}" fill="#ffab19" stroke="#001026" stroke-width="1.2" stroke-linecap="round" stroke-linejoin="round"/><path d="M193.52896,197.9652c3.46482,2.75771 6.29325,4.17193 6.29325,4.17193c0,0 -2.54558,-0.28284 -3.95979,1.69706c-1.69706,2.40417 -0.6364,4.73762 -0.21214,5.3033c-1.69706,-0.70711 -3.60624,-1.76777 -6.0104,-4.45478c-2.12132,-2.82843 -3.11127,-6.92964 -1.06066,-8.41457c1.69706,-1.13137 2.75772,0.07072 4.94975,1.69706z" data-paper-data="{&quot;origRot&quot;:0,&quot;origPos&quot;:null}" id="detail" fill="#ffffff" stroke="none" stroke-width="1" stroke-linecap="butt" stroke-linejoin="miter"/><path d="M227.15,209.7c-0.7,0.9 -2.7,4.4 -7.5,7.4c-3.3,2.1 -11.8,-1.4 -11.8,-1.4c0.9,9.2 -6.6,9 -8,6c-1.1,-2.4 -0.9,-12.7 1.3,-13.5c3.4,-1.2 8,0.8 12.1,0.8c1.2,0 2.5,-2.6 5.3,-5.4c2,-2 4.6,-5.7 8.8,-3.1c3.6,2.3 1.7,6.5 -0.2,9.2z" id="leg" fill="#ffab19" stroke="#001026" stroke-width="1.2" stroke-linecap="round" stroke-linejoin="round"/><g id="body-and-leg"><path d="M241.85,211.5c0.6,3.3 -4.2,10.8 -4.2,10.8c0,0 6,4.1 2.2,8.3c-2.8,3.1 -5,0.6 -12.3,-6.5c-1.1,-1.1 -1.1,-2.7 -0.2,-3.8c2.1,-2.4 5.1,-6.5 3.1,-8.4c-2.8,-2 -6,-4 -8,-5.2c-8.2,-4.8 -2.2,-10.7 2.3,-19c2.4,-4.5 3.6,-3.3 9.6,-2.1c3.4,0.5 5.4,0.8 7.6,0.7c3.3,-0.1 2.7,4.7 1.8,7.2c0,0 -1.4,3.7 -2.7,5.6c-1.6,2.4 -3.4,4.8 -4.6,5.7c0,0 4.7,3.5 5.4,6.7z" id="body" fill="#ffab19" stroke="#001026" stroke-width="1.2" stroke-linecap="round" stroke-linejoin="round"/><path d="M235.67843,204.70286c0,0 -1.5,-1.2 -3.1,-2.7c-2,-1.8 -4,-3.3 -2,-6.4c1.8,-2.4 3.5,-5.6 8,-2.7c4.3,2.7 2.4,5.2 2.4,5.2c-2.2,4.5 -5.3,6.6 -5.3,6.6z" id="tummy" fill="#ffffff" stroke="none" stroke-width="1" stroke-linecap="butt" stroke-linejoin="miter"/></g><path d="M226.55,191.7c-2.2,1 -6.3,-0.8 -7.4,-0.6c-0.3,0.1 -2.1,5.3 -3.2,8.4c-1.5,4.4 -8.3,3.1 -8.7,-1.5c-0.3,-4.3 3.6,-12.6 4.9,-14.1c2.9,-3.5 12.75918,-0.6917 19.34634,1.05654" id="arm" fill="#ffab19" stroke="#001026" stroke-width="1.2" stroke-linecap="round" stroke-linejoin="round"/><path d="M246.5224,128.41184c0.3,-0.2 0.8,-0.1 0.9,0.3l2.6,10.7c0,0 6.4,4.7 8.3,8c3.2,5.5 3.3,10 3.3,10c0,0 7.1,2.1 8.3,7.8c1.2,5.7 -3.2,16.5 -22,20.2c-18.8,3.7 -33.9,-1.4 -41,-12.8c-7.1,-11.4 4.1,-25 3.5,-24.2l-2.1,-17.9c-0.1,-0.4 0.4,-0.7 0.8,-0.5l12.1,7.9c0,0 4.5,-1.7 9.2,-1.9c2.8,-0.2 5.2,0 7.5,0.4z" fill="#ffab19" stroke="#001026" stroke-width="1.2" stroke-linecap="butt" stroke-linejoin="miter"/><path d="M261.3224,157.81184c0,0 6.9,1.8 8.1,7.5c1.2,5.7 -3.6,16 -22.2,19.6c-24.2,5 -35.7,-9.4 -29,-20c6.7,-10.7 18.2,-1.6 26.6,-2.2c7.2,-0.5 8,-6.8 16.5,-4.9z" id="face" fill="#ffffff" stroke="none" stroke-width="1" stroke-linecap="butt" stroke-linejoin="miter"/><path d="M229.8224,168.51184c0,-0.4 0.4,-0.7 0.8,-0.6c1.9,0.7 7.3,2.3 13.3,2.7c5.4,0.3 8.6,0 10.1,-0.3c0.5,-0.1 0.9,0.4 0.7,0.9c-0.9,2.7 -4.7,10.2 -15.2,9.6c-9.1,-1 -10,-7.4 -9.7,-12.3z" id="mouth" fill="#ffffff" stroke="#001026" stroke-width="1.2" stroke-linecap="round" stroke-linejoin="round"/><path d="M279.7224,158.91184c-4.7,3.8 -11.9,3.9 -11.9,3.9" id="whisker" fill="none" stroke="#001026" stroke-width="1.2" stroke-linecap="round" stroke-linejoin="round"/><path d="M278.4224,170.11184c-6.3,0.5 -10.2,-1.4 -10.2,-1.4" id="whisker" fill="none" stroke="#001026" stroke-width="1.2" stroke-linecap="round" stroke-linejoin="round"/><path d="M244.4224,160.11184c2.1,0 4.3,0.2 4.4,0.9c0.1,1.4 -1.4,4.2 -3,4.3c-1.8,0.2 -6,-2.3 -6,-3.9c-0.1,-1.2 2.6,-1.3 4.6,-1.3z" id="nose" fill="#001026" stroke="#001026" stroke-width="1.2" stroke-linecap="round" stroke-linejoin="round"/><path d="M199.4224,158.61184c0,0 8.6,2.8 12.1,5.9" id="whisker" fill="none" stroke="#001026" stroke-width="1.2" stroke-linecap="round" stroke-linejoin="round"/><path d="M211.8224,168.01184c-4.3,1.7 -11.7,0.6 -11.7,0.6" id="whisker" fill="none" stroke="#001026" stroke-width="1.2" stroke-linecap="round" stroke-linejoin="round"/><g id="eye"><path d="M256.2224,148.41184c2.9,4.5 3,9.6 0.2,11.4c-2.8,1.8 -7.4,-0.3 -10.4,-4.8c-2.9,-4.5 -3,-9.6 -0.2,-11.4c2.8,-1.9 7.5,0.3 10.4,4.8z" id="pupil" fill="#ffffff" stroke="#001026" stroke-width="1.2" stroke-linecap="round" stroke-linejoin="round"/><path d="M255.8224,154.11184c0,1.1 -0.8,2 -1.8,2c-1,0 -1.8,-0.9 -1.8,-2c0,-1.1 0.8,-2 1.8,-2c1,0 1.8,0.9 1.8,2" id="pupil" fill="#001026" stroke="none" stroke-width="1" stroke-linecap="butt" stroke-linejoin="miter"/></g><g id="eye"><path d="M231.4224,151.21184c3,4.4 2.8,9.8 0.1,11.7c-3.3,1.9 -7.7,0.5 -10.7,-3.9c-3.1,-4.4 -3.3,-10.1 -0.2,-12.3c3.1,-2.3 7.8,0.1 10.8,4.5z" fill="#ffffff" stroke="#001026" stroke-width="1.2" stroke-linecap="round" stroke-linejoin="round"/><path d="M230.8224,157.01184c0,1.1 -0.8,2 -1.8,2c-1,0 -1.8,-0.9 -1.8,-2c0,-1.1 0.8,-2 1.8,-2c1,0.1 1.8,0.9 1.8,2" id="pupil" fill="#001026" stroke="none" stroke-width="1" stroke-linecap="butt" stroke-linejoin="miter"/></g><path d="M242.17317,191.2979c2.36562,-0.44599 11.398,-0.74331 12.79586,-4.31121c1.29034,-3.41923 -0.86023,-13.82559 4.40865,-14.42024c5.16136,-0.59465 5.26889,9.0684 3.65597,17.09616c-2.04303,10.40636 -13.54856,15.16355 -20.64543,9.21706c-2.47315,-2.22994 -2.68821,-7.13579 -0.21506,-7.58177z" data-paper-data="{&quot;origPos&quot;:null,&quot;origRot&quot;:0}" id="arm" fill="#ffab19" stroke="#001026" stroke-width="1.2" stroke-linecap="round" stroke-linejoin="round"/></g></g></svg>