<svg version="1.1" xmlns="http://www.w3.org/2000/svg" xmlns:xlink="http://www.w3.org/1999/xlink" width="178.21508" height="202.06376" viewBox="0,0,178.21508,202.06376"><g transform="translate(-150.89246,-78.70951)"><g data-paper-data="{&quot;isPaintingLayer&quot;:true}" stroke-miterlimit="10" stroke-dasharray="" stroke-dashoffset="0" style="mix-blend-mode: normal"><path d="M151.89246,279.77327v-199.54654h176.21508v199.54654z" fill="#ffffff" fill-rule="nonzero" stroke="#000000" stroke-width="2" stroke-linecap="butt" stroke-linejoin="miter"/><g fill-rule="evenodd"><path d="M168.06593,82.43648c0.08895,-0.0593 0.23721,-0.02965 0.26686,0.08895l0.77094,3.17273c0,0 1.89771,1.39363 2.46109,2.37213c0.94885,1.63084 0.9785,2.96517 0.9785,2.96517c0,0 2.10527,0.62268 2.46109,2.31283c0.35582,1.69014 -0.94885,4.89252 -6.52336,5.98963c-5.57451,1.09711 -10.05191,-0.41512 -12.15718,-3.79541c-2.10527,-3.38029 1.21572,-7.41291 1.03781,-7.1757l-0.62268,-5.30765c-0.02965,-0.11861 0.11861,-0.20756 0.23721,-0.14826l3.58785,2.34248c0,0 1.33432,-0.50408 2.72795,-0.56338c0.83025,-0.0593 1.54189,0 2.22387,0.11861z" fill="#ffab19" stroke="#001026" stroke-width="1.2" stroke-linecap="butt" stroke-linejoin="miter"/><path d="M172.45437,91.15406c0,0 2.04596,0.53373 2.40178,2.22387c0.35582,1.69014 -1.06746,4.74426 -6.58267,5.81172c-7.1757,1.48258 -10.58564,-2.78726 -8.59898,-5.93033c1.98666,-3.17273 5.3966,-0.47443 7.88734,-0.65234c2.13492,-0.14826 2.37213,-2.01631 4.89252,-1.45293z" fill="#ffffff" stroke="none" stroke-width="1" stroke-linecap="butt" stroke-linejoin="miter"/><path d="M163.1141,94.32679c0,-0.11861 0.11861,-0.20756 0.23721,-0.17791c0.56338,0.20756 2.16457,0.68199 3.94367,0.80059c1.60119,0.08895 2.55004,0 2.99482,-0.08895c0.14826,-0.02965 0.26686,0.11861 0.20756,0.26686c-0.26686,0.80059 -1.39363,3.02447 -4.50705,2.84656c-2.6983,-0.29652 -2.96517,-2.19422 -2.87621,-3.64715z" fill="#ffffff" stroke="#001026" stroke-width="1.2" stroke-linecap="round" stroke-linejoin="round"/><path d="M177.91028,91.48023c-1.39363,1.12676 -3.52855,1.15641 -3.52855,1.15641" fill="none" stroke="#001026" stroke-width="1.2" stroke-linecap="round" stroke-linejoin="round"/><path d="M177.5248,94.80121c-1.86805,0.14826 -3.02447,-0.41512 -3.02447,-0.41512" fill="none" stroke="#001026" stroke-width="1.2" stroke-linecap="round" stroke-linejoin="round"/><path d="M167.44324,91.83605c0.62268,0 1.27502,0.0593 1.30467,0.26686c0.02965,0.41512 -0.41512,1.24537 -0.88955,1.27502c-0.53373,0.0593 -1.7791,-0.68199 -1.7791,-1.15641c-0.02965,-0.35582 0.77094,-0.38547 1.36398,-0.38547z" fill="#001026" stroke="#001026" stroke-width="1.2" stroke-linecap="round" stroke-linejoin="round"/><path d="M154.1,91.39127c0,0 2.55004,0.83025 3.58785,1.74945" fill="none" stroke="#001026" stroke-width="1.2" stroke-linecap="round" stroke-linejoin="round"/><path d="M157.7768,94.17853c-1.27502,0.50408 -3.46924,0.17791 -3.46924,0.17791" fill="none" stroke="#001026" stroke-width="1.2" stroke-linecap="round" stroke-linejoin="round"/><g><path d="M170.94214,88.36681c0.8599,1.33432 0.88955,2.84656 0.0593,3.38029c-0.83025,0.53373 -2.19422,-0.08895 -3.08377,-1.42328c-0.8599,-1.33432 -0.88955,-2.84656 -0.0593,-3.38029c0.83025,-0.56338 2.22387,0.08895 3.08377,1.42328z" fill="#ffffff" stroke="#001026" stroke-width="1.2" stroke-linecap="round" stroke-linejoin="round"/><path d="M170.82353,90.05695c0,0.32617 -0.23721,0.59303 -0.53373,0.59303c-0.29652,0 -0.53373,-0.26686 -0.53373,-0.59303c0,-0.32617 0.23721,-0.59303 0.53373,-0.59303c0.29652,0 0.53373,0.26686 0.53373,0.59303" fill="#001026" stroke="none" stroke-width="1" stroke-linecap="butt" stroke-linejoin="miter"/></g><g><path d="M163.58853,89.19705c0.88955,1.30467 0.83025,2.90586 0.02965,3.46924c-0.9785,0.56338 -2.28318,0.14826 -3.17273,-1.15641c-0.9192,-1.30467 -0.9785,-2.99482 -0.0593,-3.64715c0.9192,-0.68199 2.31283,0.02965 3.20238,1.33432z" fill="#ffffff" stroke="#001026" stroke-width="1.2" stroke-linecap="round" stroke-linejoin="round"/><path d="M163.41062,90.91685c0,0.32617 -0.23721,0.59303 -0.53373,0.59303c-0.29652,0 -0.53373,-0.26686 -0.53373,-0.59303c0,-0.32617 0.23721,-0.59303 0.53373,-0.59303c0.29652,0.02965 0.53373,0.26686 0.53373,0.59303" fill="#001026" stroke="none" stroke-width="1" stroke-linecap="butt" stroke-linejoin="miter"/></g></g><text transform="translate(179.68124,96.78773) scale(0.41875,0.41875)" font-size="40" xml:space="preserve" fill="#000000" fill-rule="nonzero" stroke="none" stroke-width="1" stroke-linecap="butt" stroke-linejoin="miter" stroke-miterlimit="10" stroke-dasharray="" stroke-dashoffset="0" font-family="Sans Serif" font-weight="normal" text-anchor="start" style="mix-blend-mode: normal"><tspan x="0" dy="0">操作提示</tspan></text><g fill-rule="evenodd"><g><path d="M226.89354,197.90485c0.68934,0.34467 2.15418,1.12017 0.08617,4.04985c-2.06801,2.92968 -8.01354,3.53285 -8.70288,3.53285c-2.67118,0.08617 -5.94553,0.08617 -9.56455,-1.12017c-10.51239,-3.44668 -10.59856,-14.73458 -7.23804,-16.54409c3.27435,-1.80951 4.73919,5.17003 9.47838,9.39222c2.06801,1.89568 4.56686,2.58501 6.63487,3.01585c2.92968,0.517 8.53054,-2.75735 9.30605,-2.32651z" fill="#ffab19" stroke="#001026" stroke-width="1.2" stroke-linecap="round" stroke-linejoin="round"/><path d="M205.5241,190.92532c1.37867,2.32651 4.04985,5.60086 4.04985,5.60086c0,0 -3.18818,-0.7755 -4.99769,0.68934c-1.46484,1.12017 -1.12017,3.01585 -0.94784,3.61902c-1.12017,-1.12017 -2.49885,-2.67118 -3.36052,-5.68703c-0.86167,-3.01585 0,-6.63487 1.72334,-7.15187c1.72334,-0.34467 2.15418,0.94784 3.53285,2.92968z" fill="#ffffff" stroke="none" stroke-width="1" stroke-linecap="butt" stroke-linejoin="miter"/></g><path d="M231.2019,206.86623c-1.55101,1.03401 -6.89337,4.82536 -13.70057,6.97954l-0.34467,0.08617c-0.34467,0.08617 -0.517,0.517 -0.34467,0.86167c1.46484,2.06801 4.13602,6.20403 -0.60317,7.66887c-4.56686,1.46484 -13.0974,-10.68472 -9.47838,-13.87291c1.63718,-1.20634 3.10202,-0.60317 3.87752,-0.2585c0.43084,0.17233 0.86167,0.17233 1.29251,0.08617c1.03401,-0.34467 2.92968,-1.03401 4.39452,-1.80951c3.70519,-1.89568 4.56686,-2.67118 6.2902,-3.96369c1.72334,-1.29251 5.68703,-4.48069 8.87521,-1.72334c2.75735,2.32651 1.20634,4.91153 -0.2585,5.94553z" fill="#ffab19" stroke="#001026" stroke-width="1.2" stroke-linecap="round" stroke-linejoin="round"/><path d="M244.90247,188.94347c0.43084,0.34467 5.68703,6.5487 7.41037,4.99769c2.06801,-1.80951 4.91153,-5.34236 8.01354,-2.49885c3.10202,2.84351 -2.75735,7.66887 -5.25619,8.96138c-5.94553,2.67118 -10.77089,-2.41268 -11.8049,-3.79135c-1.03401,-1.37867 -2.84351,-3.70519 -2.84351,-5.94553c0.08617,-2.41268 3.01585,-3.01585 4.48069,-1.72334z" fill="#ffab19" stroke="#001026" stroke-width="1.2" stroke-linecap="round" stroke-linejoin="round"/><g><path d="M244.98864,209.02041c1.80951,1.63718 5.7732,4.99769 5.7732,4.99769c0,0 12.3219,-2.15418 12.3219,4.04985c0,3.70519 -6.20403,4.56686 -14.56224,3.79135c-0.517,-0.08617 -1.03401,-0.2585 -1.46484,-0.60317c-1.89568,-1.63718 -7.32421,-6.46253 -10.77089,-9.82305c-5.08386,-4.99769 -9.30605,-8.27204 -9.30605,-8.27204c-7.32421,-7.15187 -1.37867,-10.16772 0.94784,-14.30374c2.15418,-3.53285 3.10202,-2.84351 8.27204,-1.80951c2.92968,0.43084 4.65302,0.68934 6.5487,0.60317c2.84351,-0.08617 2.32651,4.04985 1.55101,6.20403c0,0 -1.20634,3.18818 -2.32651,4.82536c-1.37867,1.98184 -2.41268,3.27435 -3.44668,4.04985z" fill="#ffab19" stroke="#001026" stroke-width="1.2" stroke-linecap="round" stroke-linejoin="round"/><path d="M237.7506,202.64405c0,0 -1.29251,-1.03401 -2.67118,-2.32651c-1.72334,-1.55101 -3.44668,-2.84351 -1.72334,-5.5147c1.55101,-2.06801 3.01585,-4.82536 6.89337,-2.32651c3.70519,2.32651 2.06801,4.48069 2.06801,4.48069c-1.89568,3.87752 -4.56686,5.68703 -4.56686,5.68703z" fill="#ffffff" stroke="none" stroke-width="1" stroke-linecap="butt" stroke-linejoin="miter"/></g><path d="M224.73936,195.57834c1.89568,2.41268 4.82536,5.42853 1.12017,7.92738c-5.08386,2.84351 -9.30605,-5.7732 -10.16772,-8.78905c-0.7755,-2.67118 1.46484,-4.39452 3.36052,-5.85936c3.70519,-2.67118 6.8072,-5.08386 10.25389,-3.79135c4.30836,1.55101 1.20634,4.99769 -0.94784,6.5487c-1.29251,0.94784 -2.58501,1.98184 -3.53285,2.58501c-0.2585,0.43084 -0.34467,0.94784 -0.08617,1.37867z" fill="#ffab19" stroke="#001026" stroke-width="1.2" stroke-linecap="round" stroke-linejoin="round"/><g><path d="M251.88201,137.5017c0.2585,-0.17233 0.68934,-0.08617 0.7755,0.2585l2.24035,9.21988c0,0 5.5147,4.04985 7.15187,6.89337c2.75735,4.73919 2.84351,8.61671 2.84351,8.61671c0,0 6.11787,1.80951 7.15187,6.72104c1.03401,4.91153 -2.75735,14.21757 -18.95677,17.40576c-16.19942,3.18818 -29.21065,-1.20634 -35.32852,-11.02939c-6.11787,-9.82305 3.53285,-21.54178 3.01585,-20.85244l-1.80951,-15.42391c-0.08617,-0.34467 0.34467,-0.60317 0.68934,-0.43084l10.42622,6.8072c0,0 3.87752,-1.46484 7.92738,-1.63718c2.41268,-0.17233 4.48069,0 6.46253,0.34467z" fill="#ffab19" stroke="#001026" stroke-width="1.2" stroke-linecap="butt" stroke-linejoin="miter"/><path d="M264.63474,162.83484c0,0 5.94553,1.55101 6.97954,6.46253c1.03401,4.91153 -3.10202,13.78674 -19.1291,16.88876c-20.85244,4.30836 -30.76166,-8.09971 -24.98846,-17.23342c5.7732,-9.21988 15.68242,-1.37867 22.92045,-1.89568c6.20403,-0.43084 6.89337,-5.85936 14.21757,-4.22219z" fill="#ffffff" stroke="none" stroke-width="1" stroke-linecap="butt" stroke-linejoin="miter"/><path d="M237.4921,172.05472c0,-0.34467 0.34467,-0.60317 0.68934,-0.517c1.63718,0.60317 6.2902,1.98184 11.46023,2.32651c4.65302,0.2585 7.41037,0 8.70288,-0.2585c0.43084,-0.08617 0.7755,0.34467 0.60317,0.7755c-0.7755,2.32651 -4.04985,8.78905 -13.0974,8.27204c-7.84121,-0.86167 -8.61671,-6.37637 -8.35821,-10.59856z" fill="#ffffff" stroke="#001026" stroke-width="1.2" stroke-linecap="round" stroke-linejoin="round"/><path d="M280.48949,163.78267c-4.04985,3.27435 -10.25389,3.36052 -10.25389,3.36052" fill="none" stroke="#001026" stroke-width="1.2" stroke-linecap="round" stroke-linejoin="round"/><path d="M279.36932,173.43339c-5.42853,0.43084 -8.78905,-1.20634 -8.78905,-1.20634" fill="none" stroke="#001026" stroke-width="1.2" stroke-linecap="round" stroke-linejoin="round"/><path d="M250.0725,164.81668c1.80951,0 3.70519,0.17233 3.79135,0.7755c0.08617,1.20634 -1.20634,3.61902 -2.58501,3.70519c-1.55101,0.17233 -5.17003,-1.98184 -5.17003,-3.36052c-0.08617,-1.03401 2.24035,-1.12017 3.96369,-1.12017z" fill="#001026" stroke="#001026" stroke-width="1.2" stroke-linecap="round" stroke-linejoin="round"/><path d="M211.29729,163.52417c0,0 7.41037,2.41268 10.42622,5.08386" fill="none" stroke="#001026" stroke-width="1.2" stroke-linecap="round" stroke-linejoin="round"/><path d="M221.98202,171.62388c-3.70519,1.46484 -10.08155,0.517 -10.08155,0.517" fill="none" stroke="#001026" stroke-width="1.2" stroke-linecap="round" stroke-linejoin="round"/><g><path d="M260.24022,154.73513c2.49885,3.87752 2.58501,8.27204 0.17233,9.82305c-2.41268,1.55101 -6.37637,-0.2585 -8.96138,-4.13602c-2.49885,-3.87752 -2.58501,-8.27204 -0.17233,-9.82305c2.41268,-1.63718 6.46253,0.2585 8.96138,4.13602z" fill="#ffffff" stroke="#001026" stroke-width="1.2" stroke-linecap="round" stroke-linejoin="round"/><path d="M259.89555,159.64665c0,0.94784 -0.68934,1.72334 -1.55101,1.72334c-0.86167,0 -1.55101,-0.7755 -1.55101,-1.72334c0,-0.94784 0.68934,-1.72334 1.55101,-1.72334c0.86167,0 1.55101,0.7755 1.55101,1.72334" fill="#001026" stroke="none" stroke-width="1" stroke-linecap="butt" stroke-linejoin="miter"/></g><g><path d="M238.87077,157.14781c2.58501,3.79135 2.41268,8.44438 0.08617,10.08155c-2.84351,1.63718 -6.63487,0.43084 -9.21988,-3.36052c-2.67118,-3.79135 -2.84351,-8.70288 -0.17233,-10.59856c2.67118,-1.98184 6.72104,0.08617 9.30605,3.87752z" fill="#ffffff" stroke="#001026" stroke-width="1.2" stroke-linecap="round" stroke-linejoin="round"/><path d="M238.35377,162.1455c0,0.94784 -0.68934,1.72334 -1.55101,1.72334c-0.86167,0 -1.55101,-0.7755 -1.55101,-1.72334c0,-0.94784 0.68934,-1.72334 1.55101,-1.72334c0.86167,0.08617 1.55101,0.7755 1.55101,1.72334" fill="#001026" stroke="none" stroke-width="1" stroke-linecap="butt" stroke-linejoin="miter"/></g></g></g><text transform="translate(169.77731,120.8363) scale(0.30164,0.30164)" font-size="40" xml:space="preserve" fill="#000000" fill-rule="nonzero" stroke="none" stroke-width="1" stroke-linecap="butt" stroke-linejoin="miter" stroke-miterlimit="10" stroke-dasharray="" stroke-dashoffset="0" font-family="Sans Serif" font-weight="normal" text-anchor="start" style="mix-blend-mode: normal"><tspan x="0" dy="0">  [W]/[↑]/[Space]      跳跃</tspan><tspan x="0" dy="46.150000000000006px"> </tspan><tspan x="0" dy="46.150000000000006px"> </tspan><tspan x="0" dy="46.150000000000006px">[A]                                  [D]</tspan><tspan x="0" dy="46.150000000000006px">[←]                                [→]</tspan><tspan x="0" dy="46.150000000000006px">左                                     右</tspan><tspan x="0" dy="46.150000000000006px">移                                     移</tspan><tspan x="0" dy="46.150000000000006px"> </tspan><tspan x="0" dy="46.150000000000006px"> </tspan><tspan x="0" dy="46.150000000000006px">              自动下落</tspan></text><text transform="translate(185.34001,268.26875) scale(0.5,0.5)" font-size="40" xml:space="preserve" fill="#00ff15" fill-rule="nonzero" stroke="none" stroke-width="1" stroke-linecap="butt" stroke-linejoin="miter" stroke-miterlimit="10" stroke-dasharray="" stroke-dashoffset="0" font-family="Sans Serif" font-weight="normal" text-anchor="start" style="mix-blend-mode: normal"><tspan x="0" dy="0">[Space]关闭</tspan></text><text transform="translate(263.69506,232.27624) scale(0.29326,0.29326)" font-size="40" xml:space="preserve" fill="#000000" fill-rule="nonzero" stroke="none" stroke-width="1" stroke-linecap="butt" stroke-linejoin="miter" stroke-miterlimit="10" stroke-dasharray="" stroke-dashoffset="0" font-family="Sans Serif" font-weight="normal" text-anchor="start" style="mix-blend-mode: normal"><tspan x="0" dy="0">[R]重新开始</tspan></text></g></g></svg>