<svg version="1.1" xmlns="http://www.w3.org/2000/svg" xmlns:xlink="http://www.w3.org/1999/xlink" width="98.76646" height="97.90251" viewBox="0,0,98.76646,97.90251"><g transform="translate(-190.61677,-131.20881)"><g data-paper-data="{&quot;isPaintingLayer&quot;:true}" fill-rule="evenodd" stroke-miterlimit="10" stroke-dasharray="" stroke-dashoffset="0" style="mix-blend-mode: normal"><g data-paper-data="{&quot;index&quot;:null}"><path d="M224.7538,187.9964c0.77909,0.43934 2.43217,1.42286 -0.13414,4.69915c-2.56631,3.27629 -9.4926,3.63187 -10.29161,3.59203c-3.10113,-0.05447 -6.89642,-0.24368 -11.02151,-1.85106c-11.98571,-4.60248 -11.43333,-17.69121 -7.43361,-19.59442c3.89985,-1.90819 5.19444,6.2664 10.44364,11.43417c2.28749,2.31677 5.14406,3.26017 7.51618,3.87904c3.36591,0.76854 10.04705,-2.70311 10.92104,-2.15892z" fill="#ffab19" stroke="#001026" stroke-width="1.2" stroke-linecap="round" stroke-linejoin="round"/><path d="M200.38786,178.67165c1.46358,2.77632 4.37053,6.72595 4.37053,6.72595c0,0 -3.6506,-1.08311 -5.83264,0.51023c-1.76262,1.21374 -1.47265,3.43093 -1.30775,4.14002c-1.23366,-1.36311 -2.74205,-3.24055 -3.56655,-6.786c-0.82449,-3.54545 0.38338,-7.69045 2.41078,-8.19013c2.01744,-0.29992 2.44213,1.22311 3.92563,3.59992z" fill="#ffffff" stroke="none" stroke-width="1" stroke-linecap="butt" stroke-linejoin="miter"/></g><path d="M221.06336,202.0092c-2.04772,0.69774 -9.16942,3.35882 -17.44645,3.74718l-0.41227,-0.00603c-0.41227,-0.00603 -0.73391,0.42588 -0.64329,0.86382c1.02698,2.75596 2.79098,8.19088 -2.96111,8.4221c-5.55879,0.28257 -11.5077,-15.88625 -6.49867,-18.38416c2.19571,-0.86537 3.65906,0.24755 4.42623,0.86517c0.43191,0.32165 0.91515,0.44999 1.42407,0.48169c1.26247,-0.07857 3.59411,-0.28704 5.46817,-0.7205c4.72064,-1.02251 5.91816,-1.63566 8.23619,-2.57201c2.31803,-0.93635 7.71366,-3.33159 10.46826,0.71095c2.39971,3.43095 -0.11006,5.86838 -2.06113,6.59179z" fill="#ffab19" stroke="#001026" stroke-width="1.2" stroke-linecap="round" stroke-linejoin="round"/><path d="M237.08282,220.63285c0.07368,-0.63606 2.93892,-9.62719 0.35192,-10.36707c-3.05355,-0.9197 -8.27984,-1.54083 -7.39337,-6.34334c0.88647,-4.80252 9.24155,-2.01096 12.0519,-0.34906c6.28923,4.20305 4.26047,12.0805 3.5412,13.94668c-0.71927,1.86619 -1.89325,5.07894 -4.09691,6.45874c-2.42625,1.40118 -4.8239,-1.10905 -4.45473,-3.34595z" data-paper-data="{&quot;index&quot;:null}" fill="#ffab19" stroke="#001026" stroke-width="1.2" stroke-linecap="round" stroke-linejoin="round"/><path d="M218.09997,190.80426c-1.12399,3.37885 -2.17076,8.1448 -6.96037,6.15493c-6.00515,-3.10453 -0.36121,-12.70432 2.00821,-15.46761c2.09076,-2.45942 5.19249,-1.39209 7.82347,-0.49322c4.9565,1.87965 9.2769,3.34052 10.22967,7.50492c1.25354,5.16417 -4.06818,4.36462 -6.94792,3.27052c-1.74453,-0.64544 -3.57252,-1.23577 -4.76284,-1.76788c-0.58254,0.02522 -1.13832,0.27244 -1.39021,0.79832z" fill="#ffab19" stroke="#001026" stroke-width="1.2" stroke-linecap="round" stroke-linejoin="round"/><path d="M213.63392,209.35024c-2.20514,1.77689 -6.77676,5.71012 -6.77676,5.71012c0,0 0.23205,14.51503 -6.87929,13.38863c-4.24705,-0.67272 -4.10834,-7.9405 -1.7019,-17.38026c0.19264,-0.57697 0.48404,-1.13829 0.95734,-1.56955c2.22078,-1.87566 8.73743,-7.222 13.21519,-10.56261c6.65161,-4.91997 11.1714,-9.16514 11.1714,-9.16514c9.52758,-7.09684 11.90501,0.26575 16.22351,3.68344c3.6584,3.11064 2.69617,4.07194 0.57227,9.81033c-1.02576,3.27991 -1.63496,5.20835 -1.88036,7.3969c-0.4175,3.27501 -5.06453,1.93146 -7.39295,0.65143c0,0 -3.43542,-1.96161 -5.10864,-3.54285c-2.02137,-1.94012 -3.31516,-3.36001 -4.01635,-4.68604z" fill="#ffab19" stroke="#001026" stroke-width="1.2" stroke-linecap="round" stroke-linejoin="round"/><path d="M220.31781,201.18241c0,0 1.2016,-1.49872 2.7033,-3.09713c1.80213,-1.99809 3.30425,-3.99648 6.40213,-1.99319c2.39808,1.80255 5.59627,3.50596 2.69148,8.00287c-2.70458,4.29713 -5.20255,2.39447 -5.20255,2.39447c-4.49765,-2.20479 -6.59435,-5.30702 -6.59435,-5.30702z" fill="#ffffff" stroke="none" stroke-width="1" stroke-linecap="butt" stroke-linejoin="miter"/><g><path d="M265.39533,140.53275c0.34384,-0.1085 0.79618,0.12685 0.78078,0.53887l-0.48405,11.00071c0,0 4.83713,6.29699 5.7425,9.99569c1.54095,6.17377 0.38326,10.52346 0.38326,10.52346c0,0 6.2338,3.99497 5.79822,9.8036c-0.43558,5.80864 -7.67033,14.95514 -26.75679,13.2708c-19.08646,-1.68433 -32.16768,-10.78938 -35.81042,-23.71611c-3.64274,-12.92673 10.90286,-22.86783 10.10373,-22.26667l2.97023,-17.77632c0.0154,-0.41202 0.57919,-0.56084 0.90763,-0.25732l9.4199,10.95836c0,0 4.79546,-0.37895 9.36508,0.73842c2.74486,0.58802 4.99411,1.44876 7.09159,2.47372z" fill="#ffab19" stroke="#001026" stroke-width="1.2" stroke-linecap="butt" stroke-linejoin="miter"/><path d="M271.41825,172.89205c0,0 6.1253,3.65112 5.68972,9.45976c-0.43558,5.80864 -7.91519,14.36349 -26.78171,12.63884c-24.63484,-1.94029 -31.66754,-18.97411 -22.27958,-27.28773c9.41582,-8.40966 17.92514,3.53402 26.15971,5.29808c7.05422,1.52577 9.57777,-4.30189 17.21186,-0.10895z" fill="#ffffff" stroke="none" stroke-width="1" stroke-linecap="butt" stroke-linejoin="miter"/><path d="M258.84002,192.58192c-0.11144,0.38416 -0.57919,0.56084 -0.93549,0.35336c-1.62974,-1.20164 -6.37016,-4.24277 -12.02114,-6.29858c-5.1026,-1.7926 -8.25948,-2.39603 -9.78367,-2.52582c-0.50806,-0.04326 -0.75292,-0.63491 -0.42154,-1.05939c1.61661,-2.34235 7.3557,-8.48667 17.27279,-4.98505c8.46108,3.49574 7.54235,9.89308 5.88905,14.51548z" data-paper-data="{&quot;index&quot;:null}" fill="#ffffff" stroke="#001026" stroke-width="1.2" stroke-linecap="round" stroke-linejoin="round"/><path d="M288.78323,179.07489c-5.57261,2.34008 -12.51539,0.43014 -12.51539,0.43014" fill="none" stroke="#001026" stroke-width="1.2" stroke-linecap="round" stroke-linejoin="round"/><path d="M284.41429,189.46923c-6.18985,-1.27503 -9.40608,-4.18637 -9.40608,-4.18637" fill="none" stroke="#001026" stroke-width="1.2" stroke-linecap="round" stroke-linejoin="round"/><path d="M254.54661,170.39251c2.01685,0.58508 4.07402,1.3901 3.97503,2.09024c-0.29401,1.37243 -2.51472,3.64365 -4.07923,3.29392c-1.78445,-0.30941 -5.12163,-3.88058 -4.67586,-5.41723c0.23829,-1.18035 2.85924,-0.52415 4.78005,0.03307z" fill="#001026" stroke="#001026" stroke-width="1.2" stroke-linecap="round" stroke-linejoin="round"/><path d="M211.7463,156.41454c0,0 7.47938,5.08516 9.97711,9.03755" fill="none" stroke="#001026" stroke-width="1.2" stroke-linecap="round" stroke-linejoin="round"/><path d="M221.0364,168.89709c-4.60337,0.43467 -11.4039,-2.68347 -11.4039,-2.68347" fill="none" stroke="#001026" stroke-width="1.2" stroke-linecap="round" stroke-linejoin="round"/><g><path d="M269.1391,162.44335c1.53144,5.12979 0.20658,10.05571 -2.98405,11.00434c-3.19063,0.94863 -7.02341,-2.34982 -8.65089,-7.50747c-1.53144,-5.12979 -0.20658,-10.05571 2.98405,-11.00434c3.21849,-1.04467 7.11945,2.37768 8.65089,7.50747z" fill="#ffffff" stroke="#001026" stroke-width="1.2" stroke-linecap="round" stroke-linejoin="round"/><path d="M267.16687,167.80621c-0.30647,1.05645 -1.32554,1.69792 -2.28594,1.41932c-0.9604,-0.27861 -1.47798,-1.36586 -1.17151,-2.4223c0.30647,-1.05645 1.32554,-1.69792 2.28594,-1.41932c0.9604,0.27861 1.47798,1.36586 1.17151,2.4223" fill="#001026" stroke="none" stroke-width="1" stroke-linecap="butt" stroke-linejoin="miter"/></g><g><path d="M244.54095,158.223c1.65534,5.06161 -0.04122,10.19207 -3.16367,11.2646c-3.69869,0.90536 -7.53442,-1.66508 -9.18976,-6.72668c-1.75138,-5.08947 -0.3554,-10.6195 3.2348,-11.8687c3.61805,-1.34525 7.4633,2.26918 9.11864,7.33079z" fill="#ffffff" stroke="#001026" stroke-width="1.2" stroke-linecap="round" stroke-linejoin="round"/><path d="M242.34879,163.62619c-0.30647,1.05645 -1.32554,1.69792 -2.28594,1.41932c-0.9604,-0.27861 -1.47798,-1.36586 -1.17151,-2.4223c0.30647,-1.05645 1.32554,-1.69792 2.28594,-1.41932c0.93254,0.37465 1.47798,1.36586 1.17151,2.4223" fill="#001026" stroke="none" stroke-width="1" stroke-linecap="butt" stroke-linejoin="miter"/></g></g></g></g></svg>