<svg version="1.1" xmlns="http://www.w3.org/2000/svg" xmlns:xlink="http://www.w3.org/1999/xlink" width="103.33333" height="55" viewBox="0,0,103.33333,55"><g transform="translate(-188.33334,-152.5)"><g data-paper-data="{&quot;isPaintingLayer&quot;:true}" fill-rule="nonzero" stroke-miterlimit="10" stroke-dasharray="" stroke-dashoffset="0" style="mix-blend-mode: normal"><path d="M189.33334,206.5v-53h101.33333v53z" fill="#ffffff" stroke="#000000" stroke-width="2" stroke-linecap="butt" stroke-linejoin="miter"/><text transform="translate(190.54583,162.33562) scale(0.21667,0.21667)" font-size="40" xml:space="preserve" fill="#9966ff" fill-rule="nonzero" stroke="none" stroke-width="1" stroke-linecap="butt" stroke-linejoin="miter" stroke-miterlimit="10" stroke-dasharray="" stroke-dashoffset="0" font-family="Sans Serif" font-weight="normal" text-anchor="start" style="mix-blend-mode: normal"><tspan x="0" dy="0">猴子 [3]</tspan></text><path d="M238.54506,187.28846v0v0v0v0v0v0c0.47064,0.87431 -0.48825,2.18087 -0.56781,2.29574c-0.13732,0.13398 0,0 -0.00231,0.00328c0,0 -0.68908,0.74401 -1.14486,0.49169c-0.19411,-0.10712 -0.28178,-0.29709 -0.28624,-0.54594c-0.08517,-0.02722 -0.20298,-0.08494 -0.2557,-0.20965c-0.08787,-0.20734 0.35459,-0.36755 0.35459,-0.36755v0.00308c0.02029,-0.06409 0.04211,-0.12992 0.06856,-0.19827c0.1495,-0.38686 0.51797,-1.14324 0.51797,-1.14324c0,0 0.83915,-1.21467 1.31581,-0.32914z" fill="#9a8479" stroke="#000000" stroke-width="0.90231" stroke-linecap="round" stroke-linejoin="round"/><path d="M243.85783,188.58014v0v0v0v0v0v0c0,0 0.44247,0.16063 0.35401,0.36777c-0.05235,0.12568 -0.17053,0.1832 -0.25531,0.2108c-0.00445,0.24768 -0.09193,0.43841 -0.28622,0.54555c-0.29664,0.1639 -0.669,-0.07817 -0.89381,-0.26775c-0.10582,-0.07124 -0.22461,-0.14866 -0.32985,-0.20926c-0.26557,-0.15309 -0.89729,-1.19075 -0.77658,-1.77394c0.12072,-0.58319 1.39787,0 1.39787,0c0.29721,0.28572 0.61859,0.66389 0.72152,0.93089c0.02609,0.06852 0.0483,0.13494 0.06837,0.19981z" fill="#9a8479" stroke="#000000" stroke-width="0.90231" stroke-linecap="round" stroke-linejoin="round"/><path d="M239.05607,189.50254v0v0v0v0v0v0c0.8347,0.31795 1.16417,0.49111 1.04655,1.15617c-0.08825,0.49864 0.3374,1.59363 0.3374,1.59363c0,0 0.20665,0.05925 0.13576,0.22587c-0.07088,0.16852 -0.58343,0.2805 -1.2478,0.24518c-0.66417,-0.03513 -1.18602,-0.02741 -1.26132,-0.18688c-0.07552,-0.15868 0.06295,-0.23261 0.06295,-0.23261c0,0 0.02568,-0.37627 0.02645,-0.78069c0,-0.40445 -0.06431,-1.51101 -0.06431,-1.51101c0,0 0.12959,-0.8276 0.96429,-0.50965z" fill="#9a8479" stroke="#000000" stroke-width="0.90231" stroke-linecap="butt" stroke-linejoin="miter"/><path d="M241.2114,189.65022v0v0v0v0v0v0c0.62766,-0.28647 1.00927,-0.33398 1.17016,0.00039c0,0 0.31461,0.58764 0.47297,1.1998c0.158,0.61178 0.27115,1.31544 0.27115,1.31544c0,0 0.20976,0.1116 0.2082,0.22163c-0.00116,0.11004 -0.18173,0.32529 -1.13384,0.35212c-0.95176,0.02566 -1.29087,-0.13052 -1.32023,-0.27453c-0.03013,-0.14383 0.08149,-0.15656 0.08149,-0.15656c0,0 0.01314,-0.15618 0,-0.53398c-0.01292,-0.37779 -0.16976,-1.07355 -0.16976,-1.07355c0,0 -0.20781,-0.76428 0.41987,-1.05078z" fill="#9a8479" stroke="#000000" stroke-width="0.90231" stroke-linecap="butt" stroke-linejoin="miter"/><path d="M239.77779,186.51394v0v0v0v0v0v0c1.7347,-0.13418 2.39731,0.87181 2.39692,0.87162c0.1412,0.25983 0.31654,0.62644 0.38936,0.96119c0.02008,0.09247 0.03244,0.19651 0.03552,0.3081c0,0 -0.01023,0.38763 -0.0479,0.50597c-0.15797,0.49576 -0.41524,1.03843 -1.03052,1.28379c-0.96603,0.38686 -1.99425,0.33937 -3.06266,-0.16893c-0.36056,-0.17105 -0.57417,-0.46255 -0.68947,-0.79438c-0.08228,-0.23882 -0.11742,-0.5502 -0.11742,-0.5502c-0.05061,-0.51795 0.03997,-1.02356 0.08825,-1.24343c0,0 0.30342,-1.03958 2.0379,-1.17374z" fill="#9a8479" stroke="#000000" stroke-width="0.90231" stroke-linecap="butt" stroke-linejoin="miter"/><g stroke-width="0.90231" stroke-linejoin="miter"><path d="M230.80172,183.56124v0v0v0v0v0v0c-0.01023,-0.01776 -0.309,-0.51678 -0.309,-0.51699c-0.82871,-1.33029 -1.01238,-4.33896 -0.94035,-5.27796l0.00638,-0.04498c0.23543,-3.98009 2.08637,-6.1044 3.1795,-7.22872c2.48112,-2.55365 6.24193,-2.65753 6.24193,-2.65753l0.13326,2.58358c0,0 -0.00715,-0.74305 1.50583,-2.04208c1.51259,-1.29903 3.74941,-1.10925 3.74941,-1.10925l-1.18696,3.23762c0,0 0.6997,-1.00849 1.27311,-1.37703c1.01662,-0.65229 1.87623,-0.37199 1.87623,-0.37199l-0.23695,2.00809c0,0 1.51298,1.96138 2.67096,3.80442c0.24781,0.39324 0.53498,0.7913 0.7171,1.2492c0.66225,1.66372 0.75784,4.62894 0.01545,6.09766c-0.12822,0.25985 -0.26786,0.51218 -0.41271,0.76023c-0.03766,0.06371 -0.07552,0.12703 -0.11395,0.18958c-0.13267,0.21814 -0.27115,0.43203 -0.41677,0.63937c-0.01969,0.02761 -0.03766,0.05694 -0.05735,0.08457c-0.16514,0.23068 -0.33933,0.45288 -0.5205,0.6689c-0.04325,0.05213 -0.08883,0.1025 -0.13306,0.15425c-0.15528,0.17839 -0.31616,0.35174 -0.48127,0.51853c-0.03805,0.03901 -0.07513,0.07858 -0.11357,0.11622c-0.19874,0.19422 -0.40575,0.37934 -0.61898,0.55617c-0.04751,0.03882 -0.09617,0.07588 -0.14408,0.11391c-0.17902,0.14287 -0.36405,0.27935 -0.55331,0.40946c-0.05465,0.03707 -0.10796,0.07605 -0.163,0.11234c-0.23118,0.15194 -0.46796,0.29461 -0.71247,0.42644c-0.04363,0.02375 -0.08998,0.04459 -0.13422,0.06758c-0.20896,0.10869 -0.42277,0.20869 -0.64119,0.30135c-0.92394,0.39169 -1.92723,0.64671 -3.00451,0.72433c-1.23119,0.08861 -2.34576,0.05134 -3.35253,-0.07993c-0.24894,-0.03244 -0.49111,-0.07124 -0.72693,-0.11468c-0.04481,-0.00907 -0.08942,-0.01776 -0.13383,-0.02645c-0.23909,-0.0471 -0.47376,-0.09766 -0.69895,-0.1554c-0.00135,-0.00039 -0.00308,-0.00077 -0.00462,-0.00116c-0.2256,-0.05713 -0.44247,-0.12123 -0.65433,-0.18919c-0.03709,-0.01177 -0.07513,-0.02354 -0.11202,-0.03552c-0.20355,-0.06659 -0.4019,-0.13783 -0.59309,-0.21331c-0.03361,-0.01274 -0.06606,-0.02722 -0.09947,-0.04034c-0.1887,-0.07608 -0.37274,-0.15523 -0.54926,-0.23901c-0.00677,-0.00385 -0.0143,-0.00638 -0.02086,-0.00985c-0.18076,-0.08647 -0.35343,-0.17683 -0.52125,-0.26931c-0.03131,-0.01735 -0.0624,-0.03435 -0.09289,-0.05172c-0.16146,-0.09169 -0.31791,-0.18534 -0.467,-0.28186c-0.02279,-0.01448 -0.04442,-0.02955 -0.06703,-0.04421c-0.14156,-0.09343 -0.27849,-0.18881 -0.40943,-0.28611c-0.0135,-0.00926 -0.02838,-0.01911 -0.04132,-0.02934c-0.13655,-0.1025 -0.26554,-0.20734 -0.38991,-0.31293c-0.02416,-0.02029 -0.04791,-0.04074 -0.07109,-0.06101c-0.12127,-0.1056 -0.23792,-0.21138 -0.34764,-0.31968c-0.01254,-0.01179 -0.02394,-0.02433 -0.03629,-0.03629c-0.10333,-0.10291 -0.20143,-0.20657 -0.29413,-0.31025c-0.01295,-0.01504 -0.02763,-0.02972 -0.04077,-0.04438c-0.09501,-0.10907 -0.30032,-0.36777 -0.31616,-0.38842c-0.08264,-0.10927 -0.16146,-0.21834 -0.23271,-0.32684c-0.00443,-0.00677 -0.00869,-0.01352 -0.01274,-0.02027c-0.06837,-0.10445 -0.13055,-0.20734 -0.1887,-0.30986z" fill="#9a8479" stroke="#000000" stroke-linecap="butt"/><path d="M245.40751,177.75472v0v0v0v0v0v0c0,0 2.24995,2.54361 1.55468,5.18222c-0.69488,2.63781 -4.84753,3.75538 -8.03822,3.55479c-4.21794,-0.26544 -6.1734,-2.7774 -5.47928,-5.17468c0.69507,-2.39728 6.27921,-3.51793 6.27921,-3.51793l-0.91698,1.72237c0,0 0.72231,-0.11157 1.30575,-0.44517c0.58326,-0.33299 1.22291,-0.77721 1.22291,-0.77721l-1.33607,1.89283c0,0 1.76461,-0.01892 3.29265,-0.63049c1.52804,-0.6108 2.11535,-1.80675 2.11535,-1.80675z" fill="#e6e7e8" stroke="#000000" stroke-linecap="butt"/><g stroke="#000000"><path d="M248.28649,176.37943c0,0 3.62155,-2.03416 4.44929,-0.30443c0.82777,1.72971 -0.65296,3.75675 -3.74303,5.59071c0,0 0.06817,-3.01138 -0.70627,-5.28629v0v0v0v0v0zM248.28649,176.37943c-0.06471,-0.2662 -0.27852,-0.77528 -0.27852,-0.77528M248.91242,182.13461l0.03882,-0.48705" fill="#9a8479" stroke-linecap="round"/><path d="M248.95124,181.64737c0.02008,-0.55773 0.0193,-1.47606 -0.10642,-2.62277c-0.07244,-0.66738 -0.21245,-1.3558 -0.35613,-1.95038l0.00039,0.00077c2.12132,-0.53997 4.00936,1.42064 4.00936,1.42064h0.00077c-1.06027,1.76003 -3.53098,3.10308 -3.53098,3.10308l-0.01699,0.04866v0v0v0z" fill="#ee4036" stroke-linecap="butt"/></g><g stroke="#000000"><path d="M231.28937,182.99234c-3.00798,-1.19691 -4.63103,-2.81542 -4.17641,-4.51562c0.45482,-1.70037 3.96204,-0.40231 3.96204,-0.40231c-0.32157,2.18802 0.21436,4.91794 0.21436,4.91794v0v0v0v0v0zM231.19763,177.32655c0,0 -0.10777,0.49554 -0.12243,0.74787M231.32299,182.96917l0.11123,0.43745" fill="#9a8479" stroke-linecap="round"/><path d="M231.30039,182.92767c0,0 -2.38573,-0.84497 -3.59666,-2.28436l0.00057,-0.00019c0,0 1.35094,-2.07219 3.30233,-1.90482l0.00019,-0.00057c-0.03244,0.56274 -0.04674,1.21061 -0.00484,1.82877c0.07068,1.06273 0.21515,1.89844 0.32099,2.40268l-0.0226,-0.04149v0v0v0v0v0z" fill="#ee4036" stroke-linecap="butt"/></g><path d="M242.94995,181.90566c-0.14001,0 -0.26246,-0.10135 -0.28564,-0.24402c-0.02531,-0.15791 0.08226,-0.30657 0.24025,-0.33184c0.14368,-0.0226 1.41717,-0.22125 1.88648,-0.16293c0.15876,0.02008 0.27154,0.16486 0.25243,0.32276c-0.02009,0.15908 -0.16707,0.2695 -0.3233,0.25232c-0.29529,-0.03591 -1.21305,0.07838 -1.72425,0.15947c-0.01545,0.00308 -0.0309,0.00424 -0.04596,0.00424v0v0v0v0v0v0z" fill="#231f20" stroke="none" stroke-linecap="butt"/><path d="M238.25554,181.96744c-0.01815,0 -0.03651,-0.00193 -0.05542,-0.00522c-0.66882,-0.12934 -1.84497,0.00233 -1.85654,0.00349c-0.15626,0.01737 -0.30207,-0.09538 -0.3206,-0.25444c-0.01815,-0.1587 0.09578,-0.30233 0.25493,-0.32048c0.05215,-0.0052 1.27561,-0.14246 2.0323,0.00349c0.15681,0.03011 0.25996,0.18204 0.22945,0.33976c-0.02686,0.13726 -0.14832,0.2334 -0.2841,0.2334v0v0v0v0v0v0z" fill="#231f20" stroke="none" stroke-linecap="butt"/><path d="M243.14442,183.26009c0,0 -0.78159,1.05385 -2.53173,1.05385c-1.74974,0 -2.21828,-0.69266 -2.21828,-0.69266" fill="none" stroke="#231f20" stroke-linecap="round"/></g></g></g></svg>